<svg xmlns="http://www.w3.org/2000/svg" width="64" height="32" viewBox="0 0 64 32">
  <g id="그룹_121023" data-name="그룹 121023" transform="translate(-32 -32)">
    <g id="그룹_120491" data-name="그룹 120491" transform="translate(33.159 32.833)" style="isolation: isolate">
      <g id="그룹_10" data-name="그룹 10" transform="translate(0 0)">
        <path id="합치기_107" data-name="합치기 107" d="M20.647,30.334a1.511,1.511,0,0,1-1.737-1.692V23.247H29.617V21.635H18.911V18.806H33.247v3.6A7.1,7.1,0,0,1,32.59,26H22.541v1.057c0,.37.026.424.395.424H34.3v2.855Zm33.827-1.348v-9.1a9.523,9.523,0,0,1-4.629,1.189H39.323V18.091h2.263V9.1H39.508V6.192H52.765V9.1h-2v5.605a13.635,13.635,0,0,1-.342,3.384,10.128,10.128,0,0,0,4.05-.925V4.818h3.631V11.9h3.576v2.988H58.105v9.016a30.088,30.088,0,0,1-.449,5.078Zm-9.416-10.9h2.235V9.1H45.058Zm-15.441-.608V4.818h3.63V9.392h3.577v3.041H33.247v5.05ZM14.281,11.032c0-3.173,1.736-5.791,6.445-5.791,4.76,0,6.5,2.618,6.5,5.791,0,3.2-1.737,5.791-6.5,5.791C16.017,16.823,14.281,14.231,14.281,11.032Zm3.6,0c0,1.982.894,2.961,2.842,2.961s2.894-.979,2.894-2.961c0-1.93-.947-2.961-2.894-2.961S17.885,9.1,17.885,11.032ZM4.745,12.58V7.837H0V4.8H4.745V0H7.954V4.8H12.7V7.837H7.954V12.58Z"/>
      </g>
    </g>
    <rect id="사각형_5051" data-name="사각형 5051" width="64" height="32" transform="translate(32 32)" fill="none"/>
  </g>
</svg>
